<svg xmlns="http://www.w3.org/2000/svg" width="1177.275px" height="275.596px" viewBox="0 0 1177.3 275.6"><path fill="#7E1B37" d="M206 52h70L242 0H206M284 87.6l-99.4 50.2 54 93.4 85.5-93.4M31.3 191l114-48.2 54 93.5-118 39.3"/><path fill="#D50226" d="M81.2 275.6L0 138 81.4 0h160.8M345.7 137.8h-161l103.7-59"/><path fill="#D50226" d="M324 137.8L81.3 275.6h161"/><g><path d="M681.5 127.2l21.8-35.4c1-1.7 2-2.4 4-2.3h13.5c2.7-.2 3.8 1.2 4 3.6V178c0 1 0 2-.2 3-.4 2-1.2 3-3.4 3-2-.4-3.8-.3-5.7-.2-3 .3-4-1-4-4V133v-24.7l-.2-2.5-10.5 15.7c-4 5.8-7.7 11.8-11.8 17.5-1 1.5-3.4 2.7-5 2.8-8 .4-8 .3-12.6-6.5l-18.6-27.7-1.3-1.8v72.6c0 5.2 0 5.2-5.4 5.2h-4c-3 .3-4-1.2-3.8-4v-7.5-78c0-4.3.2-4.5 4.7-4.5H655c1.8 0 3 .5 4 2.2l20.6 33c.5.6 1 1.2 1.7 2.5zM991.8 127.2c7.6-12 15-23.6 22-35.3 1-1.8 2-2.6 4.2-2.5h13c3-.2 4 1.4 4 4V179c0 4.2-.4 4.6-4.7 4.6-9.6 0-8.6 1-8.6-8.5v-64.7-3.3l-.7-.3-6.3 9.3c-5 7.7-10 15.5-15.4 23-1 1.5-3.3 2.4-5.2 2.8-5.7 1.5-9-1.5-12-6.3-6.4-10-13-19.5-20.3-29.3V179.8c0 3.2-1 4.2-4 4-1.6-.3-3.3-.2-5-.2-3.7 0-4.2-.6-4.3-4.4v-14V95c0-5 .4-5.5 5.4-5.5h12.6c1 0 2.4.8 3 1.6l19 30.6c1 1.7 2 3.5 3.4 5.6zM414.8 140.6v-27.2c.2-9.7 2.6-17 11.7-21.3 2.6-1 5.6-1.7 8.4-1.8 10.7-.2 21.4 0 32 0 4 0 4.4.3 4.4 4 0 7.3 0 7.3-7.2 7.3h-21.8c-8.4 0-13.5 4.8-13.4 13.3.2 14.8 0 29.6 0 44.5 0 8.5 4.8 13.2 13.3 13.6 5.2 0 10.5-.2 15.7 0 2.5 0 3-1.3 3-3.4v-35c0-2.5 1-4.2 3.8-4h6.7c2.3 0 3.7 1.3 3.7 3.8v46c0 2.5-1 4-3.8 4-12.2-.2-24.4.2-36.6-.3-10.5-.3-19.3-7.3-19.6-19.5-.2-8 0-16 0-24h-.4zM799.3 136.6v-26.8c0-12.6 9-19.8 20-20.2 11-.4 21.7 0 32.6 0 2.6-.2 3.6 1 3.6 3.6 0 8 .7 7.7-7.7 7.7-7.2-.2-14.2-.4-21.3 0-7 .2-11.3 2.5-13.2 9.4l-.3 2.8V160c0 7.8 5.3 11.8 11.8 12.2 5.8.4 11.6 0 17.4 0 3.3 0 3-2.3 3-4.3v-31.4c0-4.7 0-4.8 4.7-4.8h5.8c2.4 0 3.5 1 3.5 3.4v45c0 2.3-1 3.5-3.6 3.5-12.5 0-25 .3-37.5-.2-10.6-.4-18.5-8.3-18.8-19-.3-9.3 0-18.6 0-28zM1134.6 183.6H1117c-2.6 0-3.7-1-3.7-3.5 0-7.8-1-7.8 7.8-7.7h24.4c4.2-.2 8.2-1.2 10.3-5.7 3.8-8.5 0-17.3-8.6-20.3-8-2.7-15.8-5.8-23.8-8.6-7.6-2.6-11.5-8.4-12.2-15.8-.5-6.3.2-12.7 1.2-18.8 1.3-8 9.7-13.5 17.6-13.6 10.8-.3 21.7 0 32.5 0 2.4 0 3.5.8 3.5 3.2 0 8.5 1 8-8 8h-21c-4.4.2-8.8 1-10.7 5.6-2 5.3-2.7 11.2 1 16 1.8 2.4 5.3 3.7 8.4 5 8 3 16.6 5.7 24.7 9 7 2.8 10.3 8.2 10.7 16.5.3 5 .2 10.2-.7 15.2-1.5 9-7.5 14.5-17.7 15.3-6 .5-11.8 0-17.7 0zM911 130.6l-3.4-12c-2.2-8.2-4.6-16.2-6.8-24.2-1-3.7-.5-4.3 3.2-4.3 1.7 0 3.4.3 5 0 3.2-.3 4.5 1 5.4 4 4.5 15.4 9 30.8 13.8 46.2l11.7 39c1 4 .2 5-4 5h-2c-7.5 0-7.5 0-9.5-7.2l-9-32.2c-.3-1-1.8-2-2.8-2-6.4-.3-12.8-.2-19.3-.3-2.8 0-3.2 2-3.7 3.8l-7 25.7-2.6 8.3c0 .6 0 1.3-.5 1.7-1 .8-2.2 2.2-3.2 2-3.3-.2-7 2-9.7-1.3-.5-.6-.2-2 0-3l12.6-42c2-7 2.2-7 9.6-7H911zM601.5 130.4l-8.4-28.8-2-7.8c-.6-2.3 0-4 3-3.7.8.2 1.8 0 2.7 0 8.8 0 6.7-.6 9 7 7.4 23.7 14.4 47.7 21.5 71.6l3 10.7c1.2 3.7.3 5-3.7 5-2 0-4-.2-6 0-2.5.3-3.7-1-4.3-3-3.4-12.2-7-24.3-10.2-36.5-.5-1.7-1.2-2.3-3-2.3-6 0-12 .2-18 0-2.8-.2-4 1-5 3.6-3 11.4-6.3 22.7-9.4 34-.8 3.2-2 4.8-5.5 4.3-1.6-.2-3.3 0-5 0-2.8 0-4-1.6-3-4.3l13.6-46c.8-2.8 2.7-3.4 5.2-3.4h22c1.2 0 2.3 0 3.7-.2zM532 140l14.4 32.3 3.5 8c1 2.5 0 3.8-2.6 4h-5c-6 0-6.2-.4-8.5-5.8L520.2 147c-1.4-3.3-3.7-4.6-7-4.5h-20.6c-3 0-4.2-1-4.3-4 0-8-.2-8 7.8-8 7.2 0 14.3-.2 21.5 0 11.8.7 18-2.8 16.8-17 0-2-.5-4.2-1.4-6-2-4.5-6.4-6-11-6h-29.4c-3.8 0-4-.4-4-4.2-.2-7.5-.6-7.2 7-7.2 10.8.2 21.5 0 32.3 0 10.2 0 17.8 5.6 20 15.6 1.8 7.7 2 15.6-1 23-2 5.5-6.5 8.8-12 10.7-1 .4-2.2.6-3 .8zM1061.5 142v28.3c0 2.3 1.7 2 3.2 2h33c5 0 5.2.3 5.2 5.2v.6c-.2 5.6-.2 5.6-5.7 5.6H1052c-4 0-4.4-.3-4.4-4.4v-44.8c0-3.8.6-4.4 4.3-4.4h40c2.8 0 4.3.8 4.3 4 0 8 .2 8-7.5 8h-27.3zM1075 100.8h-24.5c-2 0-3-.5-3-2.8.2-9.3-1-8.5 8.4-8.5h42.5c3.4 0 4.4 1 4.4 4.4 0 7 0 7-6.8 7-7-.2-14-.2-21-.2z"/></g></svg>